<svg width="232" height="246" viewBox="0 0 232 246" fill="none" xmlns="http://www.w3.org/2000/svg">
<path d="M197.079 75.4192C230.006 108.83 253.69 185.257 197.925 217.157C142.16 249.117 47.85 221.084 23.0187 190.332C-1.81253 159.58 -9.12294 114.932 23.0187 68.713C44.4062 37.9005 70.8284 16.5533 102.285 4.67133C151.283 -13.9974 164.152 42.0088 197.079 75.4192Z" fill="#E7E6EB"/>
<path d="M216.775 168.884C212.787 202.234 195.085 233.651 156.6 238.061C101.258 244.465 36.8542 196.555 16.1917 159.821C13.6542 155.351 11.7812 151.061 10.6333 147.073C0.241665 110.038 10.8146 67.3838 57.2146 38.3838C88.1479 19.0908 119.947 10.1491 152.613 11.5588C159.863 11.8609 165.904 13.2505 170.919 15.5463C195.206 26.4213 196.596 57.838 203.544 88.6505C205.235 96.263 207.35 103.876 210.129 111.126C216.473 127.257 219.192 148.463 216.775 168.884Z" fill="url(#paint0_linear_220_2004)"/>
<path d="M0 113.663L35.8875 98.9213H64.3438L30.0271 116.623L0 113.663Z" fill="#C2BDFF"/>
<path d="M0 113.663L30.0271 116.623L37.0354 179.759L21.6896 181.571L0 113.663Z" fill="#8A77E5"/>
<path d="M30.0271 116.623L64.3438 98.9213L69.3584 151.182L36.0688 177.644L30.0271 116.623Z" fill="#A195F9"/>
<g style="mix-blend-mode:overlay" opacity="0.3">
<path d="M17.5209 125.988C18.4876 129.915 16.7355 133.721 13.5938 134.507C10.4522 135.232 7.12924 132.694 6.22299 128.707C5.25633 124.78 7.00841 120.973 10.1501 120.188C13.2917 119.463 16.5542 122.061 17.5209 125.988Z" fill="white"/>
</g>
<g style="mix-blend-mode:overlay" opacity="0.3">
<path d="M28.5166 125.867H19.9979L19.6354 122.967H28.1541L28.5166 125.867Z" fill="white"/>
</g>
<g style="mix-blend-mode:overlay" opacity="0.3">
<path d="M29.0604 132.392H20.5417L20.1792 129.492H28.6979L29.0604 132.392Z" fill="white"/>
</g>
<g style="mix-blend-mode:overlay" opacity="0.3">
<path d="M30.0271 151.182H7.91463L7.61255 148.282H29.6646L30.0271 151.182Z" fill="black"/>
</g>
<g style="mix-blend-mode:overlay" opacity="0.3">
<path d="M30.8729 158.19H13.775L13.4125 155.29H30.5104L30.8729 158.19Z" fill="black"/>
</g>
<g style="mix-blend-mode:overlay" opacity="0.3">
<path d="M31.7188 165.259H14.6209L14.2584 162.298H31.3563L31.7188 165.259Z" fill="black"/>
</g>
<g style="mix-blend-mode:overlay" opacity="0.3">
<path d="M32.5647 172.267H15.4667L15.1042 169.367H32.2022L32.5647 172.267Z" fill="black"/>
</g>
<g style="mix-blend-mode:overlay" opacity="0.3">
<path d="M111.046 49.863V116.201H66.3376V49.863H111.046Z" fill="black"/>
</g>
<g style="mix-blend-mode:overlay" opacity="0.5">
<path d="M113.704 49.863V116.201H111.046V49.863H113.704Z" fill="black"/>
</g>
<g style="mix-blend-mode:overlay" opacity="0.3">
<path d="M105.79 108.407H71.5939V57.6567H105.79V108.407Z" fill="white"/>
</g>
<g style="mix-blend-mode:overlay" opacity="0.3">
<path d="M174.604 47.2651V113.663H129.896V47.2651H174.604Z" fill="black"/>
</g>
<g style="mix-blend-mode:overlay" opacity="0.5">
<path d="M177.263 47.2651V113.663H174.604V47.2651H177.263Z" fill="black"/>
</g>
<g style="mix-blend-mode:overlay" opacity="0.3">
<path d="M169.348 105.809H135.152V55.1192H169.348V105.809Z" fill="white"/>
</g>
<path d="M176.175 117.53C175.692 117.691 175.249 117.892 174.846 118.134C169.71 121.155 167.354 131.003 169.71 139.4C169.71 139.4 169.71 139.421 169.71 139.461C169.912 140.065 170.113 140.669 170.315 141.273C170.355 141.354 170.375 141.394 170.375 141.394C170.375 141.435 170.395 141.475 170.435 141.515C170.516 141.716 170.697 142.16 170.979 142.844C171.14 143.207 171.322 143.549 171.523 143.871C171.523 143.912 171.523 143.952 171.523 143.992C171.12 146.65 171.12 154.384 171.523 167.192L156.6 168.884L123.129 172.63C122.928 165.299 122.988 157.787 123.31 150.094C123.431 146.892 122.646 143.509 121.438 140.246C119.424 134.728 116.524 129.613 112.738 124.9V124.84C117.873 118.919 126.754 114.871 129.352 113.784C129.634 113.623 129.876 113.522 130.077 113.482L130.44 113.361L143.006 109.736C144.658 109.615 146.37 109.474 148.142 109.313C148.988 109.192 150.438 109.253 152.552 109.555C154.244 109.857 156.419 110.34 159.077 111.065C163.004 112.213 168.019 113.965 174.181 116.684C174.383 116.764 174.604 116.845 174.846 116.925C175.289 117.127 175.732 117.328 176.175 117.53Z" fill="url(#paint1_linear_220_2004)"/>
<g style="mix-blend-mode:overlay" opacity="0.3">
<path d="M176.115 117.53C176.074 117.53 176.034 117.55 175.994 117.59C171.463 120.853 167.838 130.278 169.408 138.071C169.408 138.112 169.408 138.132 169.408 138.132C169.489 138.575 169.59 138.998 169.71 139.4C169.872 140.045 170.073 140.669 170.315 141.273C170.355 141.314 170.375 141.354 170.375 141.394C170.375 141.435 170.395 141.475 170.435 141.515C170.476 141.716 170.657 142.139 170.979 142.784C171.14 143.146 171.322 143.509 171.523 143.871C171.523 143.912 171.503 143.952 171.463 143.992C171.06 146.61 171.08 154.344 171.523 167.192L156.6 168.884C156.781 168.582 157.144 168.401 157.748 168.159C163.729 166.105 166.267 139.34 167.113 129.009C167.838 120.671 172.429 117.53 174.121 116.623L176.115 117.53Z" fill="black"/>
</g>
<path d="M121.438 140.246C119.867 142.542 118.296 144.818 116.725 147.073L104.581 139.642L112.677 124.84C112.717 124.84 112.738 124.84 112.738 124.84V124.9C116.524 129.613 119.424 134.728 121.438 140.246Z" fill="#0D003D"/>
<g style="mix-blend-mode:overlay" opacity="0.3">
<path d="M159.077 111.065C155.452 116.563 150.619 129.009 144.396 129.009C136.965 129.009 136.058 122.846 133.279 118.436C131.708 115.959 130.258 114.509 129.292 113.723C129.614 113.603 129.856 113.502 130.017 113.421L130.379 113.361L142.946 109.675C144.597 109.595 146.329 109.454 148.142 109.253C148.988 109.192 150.438 109.253 152.492 109.555C154.244 109.796 156.419 110.28 159.077 111.065Z" fill="black"/>
</g>
<path d="M152.492 109.555C151.102 112.998 149.592 126.773 143.067 126.834C136.24 126.894 134.065 115.113 130.379 113.361L142.946 109.675C144.597 109.595 146.329 109.454 148.142 109.253C148.988 109.192 150.438 109.253 152.492 109.555Z" fill="#0D003D"/>
<path d="M126.331 102.546C125.787 102.848 124.76 103.271 124.217 102.728C124.035 102.546 123.673 101.761 123.25 100.734C122.404 98.5588 121.317 95.1755 120.652 93.0609C120.35 92.0338 120.108 91.3088 120.108 91.188C120.108 90.9463 120.229 90.7651 120.41 90.6443C120.934 90.8859 121.437 91.047 121.921 91.1276C122.465 92.9401 124.096 98.2568 126.331 102.546Z" fill="#7366D3"/>
<path d="M123.25 100.734C122.243 100.975 121.639 101.036 121.437 100.915C121.196 100.734 119.383 96.0817 119.202 94.8734C119.121 94.1081 119.605 93.504 120.652 93.0609C121.317 95.1755 122.404 98.5588 123.25 100.734Z" fill="#FF9700"/>
<path d="M153.821 77.2317C154.425 81.8234 149.652 95.2359 147.84 101.278C147.417 102.607 147.115 103.634 147.115 104.057C147.034 103.614 146.994 103.231 146.994 102.909C146.953 102.788 146.933 102.667 146.933 102.546C146.933 102.264 146.933 101.982 146.933 101.7C146.933 101.66 146.933 101.62 146.933 101.58C147.054 101.217 147.155 100.814 147.235 100.371C147.417 99.5859 147.598 98.7401 147.84 97.8942C148.021 96.988 148.202 96.0817 148.263 95.1755C148.263 95.1755 148.263 95.1554 148.263 95.1151C148.303 94.8734 148.323 94.6116 148.323 94.3297C148.283 92.2755 148.484 88.6102 148.927 83.3338C148.847 83.3741 148.706 83.4345 148.504 83.5151C148.424 83.5553 148.303 83.6158 148.142 83.6963C148.061 83.7366 148.001 83.7567 147.96 83.7567C147.84 83.8373 147.699 83.8977 147.538 83.938C147.538 83.938 147.517 83.9581 147.477 83.9984C147.719 84.7234 147.779 85.8109 146.51 86.2338C144.335 86.8984 145.846 93.6047 144.275 92.2151C143.127 91.2484 142.704 87.5026 142.583 85.6297C142.463 85.6297 142.362 85.6498 142.281 85.6901C139.442 86.2338 130.379 89.2547 128.144 94.5713C126.996 92.9401 129.171 89.6776 129.292 89.4963C129.231 89.5567 128.99 89.6776 128.567 89.9192C127.6 90.4026 125.788 91.1276 123.733 91.2484C123.532 91.2484 123.331 91.2484 123.129 91.2484C123.552 93.4234 124.64 98.3172 124.76 99.1026C124.881 100.009 121.558 93.9067 120.531 90.7651C120.531 90.7047 120.41 90.7047 120.41 90.6442C119.726 90.4026 119.061 90.0401 118.417 89.5567C117.269 88.6505 116.181 87.3817 115.215 85.5692C113.16 81.622 112.335 77.8359 112.738 74.2109C114.55 75.2984 116.624 75.7012 118.96 75.4192C120.169 75.2984 121.438 74.9359 122.767 74.2109C121.317 73.8887 120.773 72.8616 121.135 71.1297C121.901 72.0158 123.391 72.1366 125.606 71.4922C128.99 70.4651 139.865 62.0067 147.115 70.7672C146.792 68.8741 145.745 67.2227 143.973 65.813C145.584 65.5713 146.712 66.0748 147.356 67.3234C148.001 68.572 148.202 69.9415 147.96 71.4317C149.41 68.8942 151.666 68.854 154.727 71.3109C152.109 71.1498 150.317 71.3915 149.35 72.0359C151.847 71.7137 153.338 73.4456 153.821 77.2317Z" fill="#0D003D"/>
<path d="M148.323 94.3297C148.323 94.6116 148.303 94.8734 148.263 95.1151C148.263 95.1554 148.263 95.1755 148.263 95.1755C148.142 96.0616 148.001 96.9679 147.84 97.8942C147.598 98.7401 147.417 99.5859 147.235 100.371C147.155 100.814 147.054 101.217 146.933 101.58C146.692 102.264 146.43 102.909 146.148 103.513C145.423 105.205 144.638 106.534 143.731 107.561C143.691 107.601 143.671 107.641 143.671 107.682C141.677 110.038 139.683 110.944 138.958 111.065C137.931 111.186 136.421 111.246 134.004 110.098C132.917 109.615 131.648 108.83 130.198 107.742C128.808 106.715 127.54 104.782 126.331 102.546C125.788 101.459 125.244 100.25 124.76 99.1026C124.76 99.0623 124.74 99.0019 124.7 98.9213C124.519 97.713 123.613 93.6651 123.19 91.4901C123.149 91.4095 123.129 91.329 123.129 91.2484C125.344 91.329 127.399 90.7449 129.292 89.4963C128.969 89.9797 128.667 90.5436 128.385 91.188C127.842 92.2755 127.479 93.6651 128.144 94.5713C128.688 93.3026 129.594 92.1547 130.742 91.1276C134.367 87.9255 140.167 86.113 142.281 85.6901C142.362 85.6498 142.463 85.6297 142.583 85.6297C142.704 87.5026 143.127 91.2484 144.275 92.2151C145.846 93.6047 144.335 86.8984 146.51 86.2338C147.779 85.8109 147.719 84.7234 147.477 83.9984C147.517 83.9581 147.538 83.938 147.538 83.938C147.699 83.8977 147.84 83.8373 147.96 83.7567C148.001 83.7567 148.061 83.7366 148.142 83.6963C148.303 83.6158 148.424 83.5554 148.504 83.5151C148.706 83.4345 148.847 83.3741 148.927 83.3338C148.484 88.6102 148.283 92.2755 148.323 94.3297Z" fill="url(#paint2_linear_220_2004)"/>
<path d="M147.175 115.898C146.752 117.892 146.088 120.369 145.242 122.121C144.638 123.39 143.852 124.296 143.006 124.236C140.046 124.055 136.542 118.134 135.817 116.261C135.515 115.415 135.092 113.965 134.669 112.575C134.427 111.669 134.185 110.763 134.004 110.098C134.971 110.582 135.877 110.823 136.602 110.944C137.569 111.186 138.354 111.125 138.958 111.065C140.167 110.944 144.577 108.648 146.933 101.58C146.933 101.862 146.933 102.184 146.933 102.546C146.933 102.667 146.954 102.788 146.994 102.909C147.115 106.353 147.356 111.73 147.538 112.515C147.598 112.817 147.477 114.207 147.175 115.898Z" fill="url(#paint3_linear_220_2004)"/>
<g style="mix-blend-mode:overlay" opacity="0.3">
<g style="mix-blend-mode:overlay" opacity="0.3">
<path d="M123.129 91.2484C125.345 91.3289 127.399 90.7449 129.292 89.4963C128.97 89.9796 128.667 90.5435 128.385 91.188C126.331 91.3088 124.519 91.4296 123.19 91.4901C123.149 91.4095 123.129 91.3289 123.129 91.2484Z" fill="black"/>
</g>
<g style="mix-blend-mode:overlay" opacity="0.3">
<path d="M148.323 94.3297C148.323 94.6116 148.303 94.8734 148.263 95.1151C148.263 95.1554 148.263 95.1755 148.263 95.1755C148.142 96.0616 148.001 96.9679 147.84 97.8942C147.598 98.7401 147.417 99.5859 147.235 100.371C147.155 100.814 147.054 101.217 146.933 101.58C146.692 102.264 146.43 102.909 146.148 103.513C146.208 98.2567 144.517 94.2692 141.738 92.3359C140.046 91.2484 135.333 91.0067 130.742 91.1276C134.367 87.9255 140.167 86.113 142.281 85.6901C142.362 85.6498 142.463 85.6297 142.583 85.6297C142.704 87.5026 143.127 91.2484 144.275 92.2151C145.846 93.6047 144.335 86.8984 146.51 86.2338C147.779 85.8109 147.719 84.7234 147.477 83.9984C147.517 83.9581 147.538 83.938 147.538 83.938C147.699 83.8977 147.84 83.8373 147.96 83.7567C148.001 83.7567 148.061 83.7366 148.142 83.6963C148.303 83.6158 148.424 83.5554 148.504 83.5151C148.706 83.4345 148.847 83.3741 148.927 83.3338C148.484 88.6102 148.283 92.2755 148.323 94.3297Z" fill="black"/>
</g>
</g>
<g style="mix-blend-mode:overlay" opacity="0.3">
<path d="M143.671 107.682C141.677 110.038 139.683 110.944 138.958 111.065C137.931 111.186 136.421 111.246 134.004 110.098C132.917 109.615 131.648 108.83 130.198 107.742C128.808 106.715 127.54 104.782 126.331 102.546C125.787 101.459 125.244 100.25 124.76 99.1026C124.76 99.0623 124.74 99.0019 124.7 98.9213C126.029 101.58 128.023 104.6 130.742 106.473C136.542 110.461 140.408 111.428 143.671 107.682Z" fill="white"/>
</g>
<g style="mix-blend-mode:overlay" opacity="0.3">
<path d="M147.175 115.898C144.215 114.207 139.744 112.273 136.602 110.944C137.569 111.186 138.354 111.125 138.958 111.065C140.167 110.944 144.577 108.648 146.933 101.58C146.933 101.862 146.933 102.184 146.933 102.546C146.933 102.667 146.954 102.788 146.994 102.909C147.115 106.353 147.356 111.73 147.538 112.515C147.598 112.817 147.477 114.207 147.175 115.898Z" fill="black"/>
</g>
<g style="mix-blend-mode:overlay" opacity="0.3">
<path d="M145.242 122.121C144.638 123.39 143.852 124.296 143.006 124.236C140.046 124.055 136.542 118.134 135.817 116.261C135.515 115.415 135.092 113.965 134.669 112.576C136.119 116.08 140.59 125.384 145.242 122.121Z" fill="white"/>
</g>
<g style="mix-blend-mode:overlay" opacity="0.3">
<path d="M153.821 77.2317C154.425 81.8234 149.652 95.2359 147.84 101.278C147.477 101.439 147.175 101.58 146.933 101.7C146.933 101.66 146.933 101.62 146.933 101.58C147.054 101.217 147.155 100.814 147.235 100.371C147.417 99.5859 147.598 98.7401 147.84 97.8942C148.021 96.988 148.202 96.0817 148.263 95.1755C148.263 95.1755 148.263 95.1554 148.263 95.1151C148.303 94.8734 148.323 94.6116 148.323 94.3297C148.283 92.2755 148.484 88.6102 148.927 83.3338C148.847 83.3741 148.706 83.4345 148.504 83.5151C148.424 83.5553 148.303 83.6158 148.142 83.6963C148.061 83.7366 148.001 83.7567 147.96 83.7567C147.84 83.8373 147.699 83.8977 147.538 83.938C147.538 83.938 147.517 83.9581 147.477 83.9984C147.719 84.7234 147.779 85.8109 146.51 86.2338C144.335 86.8984 145.846 93.6047 144.275 92.2151C143.127 91.2484 142.704 87.5026 142.583 85.6297C142.463 85.6297 142.362 85.6498 142.281 85.6901C139.442 86.2338 130.379 89.2547 128.144 94.5713C128.667 90.463 131.104 87.3616 135.454 85.2672C139.764 83.1727 141.335 80.1116 140.167 76.0838L143.006 77.8963C142.885 73.5463 141.093 70.888 137.629 69.9213C142.06 69.5991 145.765 71.2102 148.746 74.7547C147.135 70.4852 149.129 69.3373 154.727 71.3109C152.109 71.1498 150.317 71.3915 149.35 72.0359C151.847 71.7137 153.338 73.4456 153.821 77.2317Z" fill="black"/>
</g>
<path d="M146.994 83.0318C144.456 71.9151 137.951 67.7866 127.479 70.6463C128.929 68.1088 133.038 66.6588 138.233 67.9276C143.429 69.1359 148.746 76.0838 149.773 82.3068L146.994 83.0318Z" fill="#FFAA00"/>
<path d="M152.31 97.8338C151.948 97.8741 151.565 97.7331 151.163 97.4109C149.894 96.4442 148.746 93.7255 148.202 90.463C147.719 87.1401 148.081 84.2401 149.048 82.9109C149.29 82.5484 149.652 82.2463 150.015 82.2463C151.646 82.0047 153.519 85.2672 154.123 89.5567C154.788 93.9067 153.942 97.5922 152.31 97.8338Z" fill="#7366D3"/>
<path d="M152.31 97.8338L150.135 98.1359C148.504 98.3776 146.692 95.0547 146.088 90.7651C145.423 86.4755 146.208 82.7901 147.84 82.5484L150.015 82.2463C149.652 82.2463 149.29 82.5484 149.048 82.9109C148.081 84.2401 147.719 87.1401 148.202 90.463C148.746 93.7255 149.894 96.4442 151.163 97.4109C151.565 97.7331 151.948 97.8741 152.31 97.8338Z" fill="#8A77E5"/>
<path d="M154.908 94.8734L153.096 95.1755C152.008 95.2963 150.8 93.1214 150.377 90.2818C149.954 87.4422 150.498 85.0255 151.585 84.8443L153.398 84.6026C153.096 84.663 152.794 84.9047 152.613 85.3276C152.25 85.9922 152.069 87.0797 152.069 88.3484C152.069 88.872 152.129 89.4359 152.25 90.0401C152.331 90.6443 152.451 91.2082 152.613 91.7318C152.915 92.9401 153.398 93.9068 153.942 94.3901C154.244 94.7526 154.606 94.9338 154.908 94.8734Z" fill="#FF9700"/>
<path d="M154.908 94.8734C154.606 94.9338 154.244 94.7526 153.942 94.3901C153.398 93.9067 152.915 92.9401 152.613 91.7317C152.451 91.2081 152.331 90.6442 152.25 90.0401C152.129 89.4359 152.069 88.872 152.069 88.3484C152.069 87.0796 152.25 85.9921 152.613 85.3276C152.794 84.9046 153.096 84.663 153.398 84.6026C154.485 84.4213 155.694 86.5963 156.117 89.4359C156.54 92.2755 155.996 94.7526 154.908 94.8734Z" fill="#FFAA00"/>
<g style="mix-blend-mode:overlay" opacity="0.3">
<path d="M129.896 88.3484C129.694 88.872 129.251 89.3956 128.567 89.9192C127.66 90.5838 126.15 91.2484 123.733 91.2484C121.921 91.188 120.048 90.5234 118.417 89.5567C117.269 88.6505 116.181 87.3817 115.215 85.5692C113.16 81.622 112.335 77.8359 112.738 74.2109C114.55 75.2984 116.624 75.7012 118.96 75.4192C118.356 75.7817 117.51 76.0838 116.604 76.1442C115.235 76.2651 114.268 76.0234 113.704 75.4192C114.792 82.1054 116.624 86.4151 119.202 88.3484C121.82 90.2817 125.385 90.2817 129.896 88.3484Z" fill="white"/>
</g>
<path d="M207.894 207.853C206.283 217.157 198.952 225.535 185.902 232.986C185.419 233.268 184.915 233.55 184.392 233.832C177.685 237.457 169.106 240.719 158.11 243.075C155.654 243.559 153.116 243.921 150.498 244.163C150.055 244.203 149.592 244.244 149.108 244.284C131.95 245.492 112.315 240.78 93.8875 232.805C93.6056 232.724 93.3438 232.623 93.1021 232.503C72.1375 223.38 52.925 210.148 40.9021 196.857C40.7007 196.655 40.4993 196.434 40.2979 196.192C35.525 190.815 32.0208 185.438 30.0271 180.363L34.1959 177.463L35.8271 176.315L57.2146 161.634L58.1813 160.969L66.0959 155.532L90.0209 157.223L92.1354 157.344L130.198 160.063L135.152 160.425L151.525 161.573L152.431 161.634L181.613 163.688L181.915 163.748L182.821 163.809L192.971 164.473C192.971 164.473 192.971 164.494 192.971 164.534L193.938 164.594L196.233 164.715L201.55 165.078L203.363 177.463L203.544 178.369L204.45 184.471L204.571 185.559L207.894 207.853Z" fill="url(#paint4_linear_220_2004)"/>
<g opacity="0.5">
<g style="mix-blend-mode:overlay" opacity="0.3">
<path d="M99.3854 197.4C98.9625 201.992 97.2104 206.825 93.2833 209.423C85.4292 214.68 70.7479 212.625 67.7271 202.657C67.0625 200.603 66.9417 198.005 68.3917 196.313C69.7208 194.803 71.9562 194.078 73.8292 193.715C77.8771 192.748 82.4083 193.232 85.3083 196.494C85.6708 196.917 85.0667 197.582 84.7042 197.098C81.4417 193.473 75.9437 193.594 71.7146 195.286C64.2833 198.186 69.9625 207.067 74.7958 209.484C79.025 211.598 84.4021 211.659 88.9333 210.39C94.0083 209 96.9688 205.013 98.0563 199.998C99.1438 195.225 98.7812 189.788 94.4313 186.888C90.3229 184.109 84.7042 183.263 79.8708 182.84C75.1583 182.417 70.4458 182.538 65.7937 182.78C60.5979 182.961 55.4021 183.142 50.9312 186.103C47.125 188.58 43.9833 192.386 41.4458 196.132C41.2444 196.373 41.0632 196.615 40.9021 196.857C40.7007 196.655 40.4993 196.434 40.2979 196.192C40.9826 195.145 41.7076 194.138 42.4729 193.171C46.4604 188.096 51.1125 183.686 57.6375 182.538C63.7396 181.45 70.3854 181.45 76.5479 181.692C82.2875 181.934 88.5708 182.659 93.7063 185.378C98.2979 187.855 99.8688 192.386 99.3854 197.4Z" fill="black"/>
</g>
<g style="mix-blend-mode:overlay" opacity="0.3">
<path d="M114.49 196.917C110.925 209.061 100.896 218.486 88.2687 220.359C87.725 220.419 87.4833 219.573 88.0875 219.453C103.131 217.217 114.006 204.107 114.973 189.184C115.456 181.269 112.194 174.744 105.306 170.757C99.5062 167.434 90.8666 165.501 85.1875 170.032C84.7646 170.394 84.1 169.79 84.5229 169.428C89.5375 165.44 96.425 166.044 102.044 168.28C106.998 170.153 111.59 173.596 114.006 178.369C116.846 183.988 116.181 191.057 114.49 196.917Z" fill="black"/>
</g>
<g style="mix-blend-mode:overlay" opacity="0.3">
<path d="M185.902 232.986C185.419 233.268 184.915 233.55 184.392 233.832C182.277 233.832 180.223 233.771 178.229 233.59C173.154 233.167 168.019 232.382 163.125 231.113C159.319 230.146 155.331 228.998 152.371 226.4C146.148 221.084 146.269 211.961 145.302 204.53C144.033 194.984 141.617 185.317 135.454 177.705C135.092 177.221 135.756 176.617 136.119 177.04C140.771 182.84 143.429 189.848 144.94 197.098C146.51 204.409 146.148 212.384 148.746 219.392C151.646 227.186 159.198 229.482 166.629 231.053C172.852 232.321 179.498 233.228 185.902 232.986Z" fill="black"/>
</g>
<g style="mix-blend-mode:overlay" opacity="0.3">
<path d="M204.571 185.559C203.926 185.237 203.221 184.935 202.456 184.653C199.073 183.444 194.965 182.9 191.4 183.625C187.412 184.471 184.573 187.432 182.337 190.634C180.162 193.836 178.531 197.4 177.927 201.207C177.625 203.503 177.444 206.282 179.74 207.671C181.129 208.517 182.821 208.698 184.392 208.759C185.54 208.819 186.567 208.819 187.715 208.517C189.285 208.034 189.89 206.946 190.433 205.496C191.098 203.684 191.762 201.69 191.762 199.757C191.762 196.796 189.587 193.957 186.385 194.621C184.21 195.105 182.942 197.038 182.519 199.092C182.458 199.636 181.552 199.394 181.673 198.85C182.277 195.467 185.479 192.688 189.044 193.896C193.152 195.346 192.971 200.3 192.004 203.684C191.521 205.315 190.977 207.369 189.648 208.578C188.258 209.846 186.204 209.725 184.392 209.665C181.069 209.484 177.504 208.517 176.9 204.771C176.356 200.965 177.927 196.736 179.619 193.473C181.431 190.03 183.848 186.525 187.171 184.411C191.944 181.33 199.012 181.873 204.45 184.471L204.571 185.559Z" fill="black"/>
</g>
<g style="mix-blend-mode:overlay" opacity="0.3">
<path d="M191.521 216.553C184.754 220.238 175.873 220.298 170.435 214.257C165.24 208.396 163.427 199.878 164.575 192.205C165.179 188.217 166.629 184.411 168.865 181.028C171.281 177.403 174.423 174.382 177.202 171.059C179.075 168.823 180.827 166.407 181.915 163.748L182.821 163.809C182.74 164.091 182.64 164.373 182.519 164.655C179.256 171.844 172.308 176.436 168.502 183.323C164.635 190.271 164.092 198.971 166.871 206.403C168.381 210.39 170.858 214.438 174.665 216.553C178.652 218.788 183.606 218.607 187.835 217.217C191.521 215.948 195.085 213.592 197.079 210.209C199.375 206.403 199.435 201.388 196.535 197.823C196.173 197.4 196.837 196.736 197.2 197.219C202.637 203.925 198.348 212.807 191.521 216.553Z" fill="black"/>
</g>
<g style="mix-blend-mode:overlay" opacity="0.3">
<path d="M193.937 164.594C193.756 165.44 193.454 166.225 193.092 167.011C191.762 169.609 189.346 171.421 187.11 173.234C184.271 175.469 181.371 177.705 178.592 180.061C175.571 182.659 172.973 185.8 172.912 189.969C172.912 190.573 172.006 190.573 172.006 189.969C172.187 183.444 177.746 179.578 182.398 175.832C185.056 173.717 188.017 171.784 190.312 169.307C191.702 167.857 192.548 166.225 192.971 164.534L193.937 164.594Z" fill="black"/>
</g>
<g style="mix-blend-mode:overlay" opacity="0.3">
<path d="M203.544 178.369C199.919 177.886 196.294 177.584 192.669 177.342C192.125 177.282 192.125 176.376 192.669 176.436C196.253 176.637 199.818 176.98 203.362 177.463L203.544 178.369Z" fill="black"/>
</g>
<g style="mix-blend-mode:overlay" opacity="0.3">
<path d="M149.29 193.534C146.812 187.069 146.51 180.121 144.456 173.596C142.462 167.071 137.871 160.607 130.5 160.184C130.379 160.184 130.278 160.144 130.198 160.063L135.152 160.425C139.321 162.238 142.402 166.044 144.215 170.334C147.356 177.644 147.296 185.861 150.135 193.292C150.317 193.836 149.471 194.078 149.29 193.534Z" fill="black"/>
</g>
<g style="mix-blend-mode:overlay" opacity="0.3">
<path d="M166.931 166.528C166.327 168.34 165.662 170.213 164.817 171.965C164.333 172.992 163.91 174.563 162.883 175.167C161.01 176.255 157.808 175.167 156.177 174.08C152.008 171.3 151.646 166.346 151.525 161.573L152.431 161.634C152.431 165.198 152.673 168.763 154.848 171.603C156.358 173.536 160.769 176.194 162.944 173.717C163.729 172.811 164.212 171.119 164.696 170.092C165.179 168.823 165.662 167.555 166.085 166.286C166.206 165.742 167.112 165.923 166.931 166.528Z" fill="black"/>
</g>
<g style="mix-blend-mode:overlay" opacity="0.3">
<path d="M150.498 244.163C150.055 244.203 149.592 244.244 149.108 244.284C149.108 244.244 149.088 244.223 149.048 244.223C143.49 239.33 140.046 232.503 136.904 225.917C133.219 218.244 129.292 210.753 124.942 203.503C124.639 203.019 125.425 202.536 125.727 203.08C129.594 209.484 133.158 216.13 136.421 222.896C139.502 229.18 142.402 235.765 147.114 241.021C148.162 242.189 149.289 243.237 150.498 244.163Z" fill="black"/>
</g>
<g style="mix-blend-mode:overlay" opacity="0.3">
<path d="M157.929 240.055C150.377 235.282 144.517 228.394 140.952 220.178C140.71 219.694 141.496 219.211 141.737 219.755C145.181 227.79 150.981 234.617 158.412 239.269C158.896 239.571 158.412 240.357 157.929 240.055Z" fill="black"/>
</g>
<g style="mix-blend-mode:overlay" opacity="0.3">
<path d="M127.721 234.194C126.633 235.886 124.096 235.946 122.283 236.188C117.692 236.671 111.59 235.644 110.985 230.025C110.925 229.482 111.831 229.482 111.892 230.025C112.375 234.436 117.087 235.584 120.773 235.403C122.223 235.342 123.975 235.282 125.425 234.738C127.842 233.892 127.721 231.234 126.935 229.24C124.458 223.198 115.215 221.567 109.475 222.353C102.89 223.259 98.6 228.394 93.8875 232.805C93.6055 232.724 93.3437 232.623 93.1021 232.503C95.3979 230.388 97.5729 228.092 99.9291 226.098C104.098 222.655 108.508 220.903 113.946 221.446C118.96 221.93 124.942 223.319 127.479 228.213C128.325 229.905 128.869 232.442 127.721 234.194Z" fill="black"/>
</g>
<g style="mix-blend-mode:overlay" opacity="0.3">
<path d="M119.262 218.909C117.39 216.613 114.55 215.465 111.59 215.828C110.985 215.888 110.985 214.982 111.59 214.921C114.731 214.559 117.873 215.767 119.867 218.305C120.229 218.728 119.625 219.392 119.262 218.909Z" fill="black"/>
</g>
<g style="mix-blend-mode:overlay" opacity="0.3">
<path d="M87.2416 179.698C84.8854 177.886 81.925 177.463 79.0854 177.1C75.8632 176.657 72.6208 176.315 69.3583 176.073C63.5986 175.63 57.859 175.51 52.1396 175.711C46.0979 175.953 40.1166 176.537 34.1958 177.463L35.8271 176.315C40.9625 175.59 46.0979 175.107 51.2333 174.865C58.1611 174.583 65.0687 174.744 71.9562 175.348C77.0312 175.832 83.677 175.771 87.8458 179.034C88.2687 179.396 87.6646 180 87.2416 179.698Z" fill="black"/>
</g>
<g style="mix-blend-mode:overlay" opacity="0.3">
<path d="M92.1354 157.344C89.1548 158.512 86.1743 159.66 83.1937 160.788C79.2062 162.359 75.2187 163.325 70.8687 163.325C66.9416 163.265 62.7125 163.023 58.8458 162.117C58.2819 161.956 57.7381 161.795 57.2145 161.634L58.1812 160.969C59.45 161.332 60.7791 161.573 62.0479 161.755C65.7937 162.238 69.6604 162.6 73.4062 162.359C77.4541 162.057 81.1395 160.667 84.8854 159.217C86.6173 158.532 88.3291 157.868 90.0208 157.223L92.1354 157.344Z" fill="black"/>
</g>
<g style="mix-blend-mode:overlay" opacity="0.3">
<path d="M128.446 187.794C125.425 177.282 119.625 166.225 108.206 163.265C107.662 163.144 107.904 162.298 108.448 162.419C120.169 165.44 126.21 176.738 129.292 187.553C129.473 188.096 128.567 188.338 128.446 187.794Z" fill="black"/>
</g>
</g>
<path d="M186.386 199.696L159.983 200.059L133.883 201.63L149.713 177.644L192.488 178.188L186.386 199.696Z" fill="#34288C"/>
<g style="mix-blend-mode:overlay" opacity="0.3">
<path d="M157.265 179.88H186.929L183.002 194.923L148.565 195.225L157.265 179.88Z" fill="white"/>
</g>
<g style="mix-blend-mode:overlay" opacity="0.3">
<path d="M178.169 196.313H182.398L181.794 198.428L176.961 198.488L178.169 196.313Z" fill="white"/>
</g>
<g style="mix-blend-mode:overlay" opacity="0.3">
<path d="M178.531 191.6H182.761L182.217 193.775H177.323L178.531 191.6Z" fill="white"/>
</g>
<g style="mix-blend-mode:overlay" opacity="0.3">
<path d="M170.979 191.6H175.208L174.604 193.775H169.771L170.979 191.6Z" fill="white"/>
</g>
<g style="mix-blend-mode:overlay" opacity="0.3">
<path d="M164.877 191.6H169.046L168.502 193.775H163.608L164.877 191.6Z" fill="white"/>
</g>
<g style="mix-blend-mode:overlay" opacity="0.3">
<path d="M170.013 188.519H174.242L173.638 190.694H168.804L170.013 188.519Z" fill="white"/>
</g>
<g style="mix-blend-mode:overlay" opacity="0.3">
<path d="M163.125 188.398H167.354L166.811 190.573H161.917L163.125 188.398Z" fill="white"/>
</g>
<g style="mix-blend-mode:overlay" opacity="0.3">
<path d="M167.294 185.68H171.523L170.979 187.794L166.085 187.855L167.294 185.68Z" fill="white"/>
</g>
<g style="mix-blend-mode:overlay" opacity="0.3">
<path d="M162.038 185.378H166.267L165.723 187.553H160.829L162.038 185.378Z" fill="white"/>
</g>
<g style="mix-blend-mode:overlay" opacity="0.3">
<path d="M170.617 182.84H174.786L174.242 184.955L169.348 185.015L170.617 182.84Z" fill="white"/>
</g>
<g style="mix-blend-mode:overlay" opacity="0.3">
<path d="M168.804 180.303H173.033L172.49 182.478H167.596L168.804 180.303Z" fill="white"/>
</g>
<g style="mix-blend-mode:overlay" opacity="0.3">
<path d="M164.454 182.84H168.623L168.079 184.955L163.185 185.015L164.454 182.84Z" fill="white"/>
</g>
<g style="mix-blend-mode:overlay" opacity="0.3">
<path d="M173.698 185.378H177.927L177.383 187.553H172.49L173.698 185.378Z" fill="white"/>
</g>
<g style="mix-blend-mode:overlay" opacity="0.3">
<path d="M170.979 196.313H175.208L174.604 198.428L169.771 198.488L170.979 196.313Z" fill="white"/>
</g>
<g style="mix-blend-mode:overlay" opacity="0.3">
<path d="M163.79 196.313H168.019L167.475 198.428L162.581 198.488L163.79 196.313Z" fill="white"/>
</g>
<path d="M109.233 200.723L186.386 199.696L187.956 207.188H109.233V200.723Z" fill="#0D003D"/>
<path d="M186.386 199.696L192.488 178.188L192.85 181.632L187.956 207.188L186.386 199.696Z" fill="#200E75"/>
<path d="M178.229 204.59C179.8 212.203 175.692 216.955 165.904 218.848C151.283 221.748 138.173 220.903 132.736 239.45" stroke="#C14AFF" stroke-width="1.5" stroke-linecap="round" stroke-linejoin="round"/>
<path d="M216.775 168.884C212.787 202.234 195.085 233.65 156.6 238.061C101.258 244.465 36.8542 196.555 16.1917 159.821C28.4562 106.292 76.4271 66.3568 133.702 66.3568C159.742 66.3568 183.848 74.6338 203.544 88.6505C205.235 96.263 207.35 103.876 210.129 111.125C216.473 127.257 219.192 148.463 216.775 168.884Z" fill="url(#paint5_radial_220_2004)"/>
<path style="mix-blend-mode:soft-light" d="M216.835 168.823C212.727 169.548 208.8 170.092 205.356 170.636C184.633 173.959 182.096 194.198 163.608 196.796C164.213 195.226 164.515 192.084 164.635 188.036C164.998 175.59 163.951 156.539 161.494 130.882C161.131 130.64 160.285 130.519 159.017 130.459C150.256 130.036 121.498 133.238 92.8604 127.378C71.8958 123.088 58.4229 116.442 50.6896 111.669C45.1917 108.226 42.5938 105.688 42.2313 105.507C43.1577 105.748 44.6278 105.748 46.6417 105.507C49.8438 105.084 54.7979 103.755 61.7458 100.19C75.2188 93.1818 88.5104 59.8318 108.327 56.8713C128.083 53.8505 151.344 53.1255 158.352 43.338C159.319 41.9484 160.346 40.1359 161.373 37.9609C164.273 31.9193 167.475 23.2797 170.979 15.4859C201.248 29.0797 195.992 74.6339 210.25 111.065C216.533 127.196 219.252 148.403 216.835 168.823Z" fill="url(#paint6_linear_220_2004)"/>
<path style="mix-blend-mode:soft-light" d="M161.373 37.9609C158.835 57.3547 123.129 56.0255 107.119 61.5234C90.7458 67.2026 73.8896 100.976 64.4042 103.996C58.7854 105.809 51.5354 105.809 46.6417 105.507C49.8437 105.084 54.7979 103.755 61.7458 100.19C75.2187 93.1818 88.5104 59.8318 108.327 56.8714C128.083 53.8505 151.344 53.1255 158.352 43.338C159.319 41.9484 160.346 40.1359 161.373 37.9609Z" fill="url(#paint7_linear_220_2004)"/>
<path style="mix-blend-mode:soft-light" d="M232 165.621C222.394 168.219 212.908 169.428 205.356 170.636C184.633 173.959 182.096 194.198 163.608 196.796C164.212 195.226 164.515 192.084 164.635 188.036C167.656 187.976 171.281 187.432 174.846 185.619C183.908 181.028 186.808 167.676 204.631 166.467C213.815 165.863 223.481 166.226 232 165.621Z" fill="url(#paint8_linear_220_2004)"/>
<path d="M216.775 168.884C212.787 202.234 195.085 233.651 156.6 238.061C101.258 244.465 36.8542 196.555 16.1917 159.821C13.6542 155.351 11.7812 151.061 10.6333 147.073C0.241665 110.038 10.8146 67.3838 57.2146 38.3838C88.1479 19.0908 119.947 10.1491 152.613 11.5588C159.863 11.8609 165.904 13.2505 170.919 15.5463C195.206 26.4213 196.596 57.838 203.544 88.6505C205.235 96.263 207.35 103.876 210.129 111.126C216.473 127.257 219.192 148.463 216.775 168.884Z" fill="url(#paint9_linear_220_2004)"/>
<path d="M107.965 234.255C107.602 234.416 107.219 234.516 106.817 234.557C101.077 235.705 75.5813 226.944 74.675 218.788C75.4806 217.217 76.6487 215.566 78.1792 213.834C80.0521 211.598 82.7105 209.242 85.9125 207.853C92.9209 204.892 113.04 211.115 114.973 217.942C116.785 224.407 113.1 232.321 107.965 234.255Z" fill="#8A77E5"/>
<g style="mix-blend-mode:overlay" opacity="0.3">
<path d="M107.965 234.255C107.602 234.416 107.219 234.516 106.817 234.557C101.077 235.705 75.5813 226.944 74.675 218.788C75.4806 217.217 76.6487 215.566 78.1792 213.834C82.7105 211.659 91.048 208.94 99.6271 212.565C109.354 216.734 108.81 228.757 107.965 234.255Z" fill="black"/>
</g>
<path d="M158.956 130.519C150.196 130.096 121.438 133.298 92.7397 127.438C77.6959 124.296 66.4584 120.007 58.4834 116.08C55.4022 114.509 52.8042 113.059 50.6292 111.669C45.1313 108.286 42.5334 105.748 42.1709 105.567C41.5265 105.245 40.1772 105.547 38.123 106.473C39.573 108.004 41.1237 109.454 42.7751 110.823C46.7022 114.086 51.173 116.986 56.0063 119.463C94.0688 139.219 155.875 136.742 161.433 130.942C161.071 130.701 160.225 130.58 158.956 130.519Z" fill="#8A77E5"/>
<path d="M164.394 191.661C164.213 193.957 163.91 195.769 163.548 196.857C161.494 202.173 135.877 210.209 106.877 207.188H106.817C105.971 207.107 105.125 207.007 104.279 206.886C103.876 206.846 103.454 206.805 103.01 206.765C102.729 206.725 102.426 206.664 102.104 206.584C101.863 206.544 101.601 206.523 101.319 206.523C100.956 206.443 100.614 206.382 100.292 206.342C99.9292 206.262 99.5869 206.201 99.2647 206.161C98.9424 206.121 98.6403 206.06 98.3584 205.98C97.8751 205.899 97.4119 205.819 96.9688 205.738C96.4855 205.657 95.982 205.557 95.4584 205.436C94.2501 205.194 93.0619 204.932 91.8938 204.651C91.2897 204.489 90.7056 204.328 90.1417 204.167C90.1015 204.167 90.0813 204.167 90.0813 204.167C89.4772 204.006 88.8931 203.845 88.3292 203.684C88.289 203.684 88.2688 203.684 88.2688 203.684C87.5841 203.482 86.8994 203.281 86.2146 203.08C85.1271 202.757 84.0397 202.415 82.9522 202.053C70.748 197.884 58.9667 191.117 48.9376 180.846C43.1376 170.938 39.5327 146.147 38.123 106.473C39.573 108.004 41.1237 109.454 42.7751 110.823C46.7022 114.086 51.173 116.986 56.0063 119.463C94.0688 139.219 155.875 136.742 161.433 130.942C164.253 160.264 165.24 180.504 164.394 191.661Z" fill="url(#paint10_linear_220_2004)"/>
<g style="mix-blend-mode:overlay" opacity="0.3">
<path d="M84.7646 160.123C94.6125 157.707 105.125 164.353 104.944 180.303C104.762 195.226 91.2291 195.951 84.7646 190.151C78.5416 184.532 73.1646 163.023 84.7646 160.123Z" fill="black"/>
</g>
<path d="M83.375 159.398C93.1625 156.921 103.675 163.628 103.494 179.578C103.373 194.5 89.7792 195.165 83.375 189.425C77.0917 183.807 71.7146 162.298 83.375 159.398Z" fill="#6C5ED1"/>
<path d="M83.0125 160.425C92.9812 158.553 103.071 165.863 101.983 181.753C100.896 196.615 87.302 196.555 81.2604 190.392C75.3396 184.411 71.2312 162.6 83.0125 160.425Z" fill="#8A77E5"/>
<g style="mix-blend-mode:overlay" opacity="0.3">
<path d="M106.817 207.188C100.05 206.523 93.1021 205.194 86.2146 203.08L85.4896 177.826C84.966 176.416 85.4291 175.348 86.8791 174.623C88.9937 173.476 92.075 174.865 92.6791 179.094C93.3437 183.323 99.7479 204.59 106.817 207.188Z" fill="black"/>
</g>
<path d="M98.1167 218.003C97.9354 219.211 97.5729 220.117 96.9688 220.903C95.0354 223.561 91.2292 224.165 87.725 223.319C83.3146 222.292 81.7438 187.915 82.5292 181.934C82.5292 181.692 82.5493 181.511 82.5896 181.39C83.234 178.611 84.5431 176.738 86.5167 175.771C89.3764 175.409 90.8063 176.96 90.8063 180.423C90.2625 181.813 88.9938 182.357 88.6917 183.746C88.3292 185.136 99.0229 212.928 98.1167 218.003Z" fill="url(#paint11_linear_220_2004)"/>
<g style="mix-blend-mode:overlay" opacity="0.1">
<path d="M71.2313 138.555C83.6771 144.637 97.8146 147.134 113.644 146.046" stroke="black" stroke-width="4.4" stroke-linecap="round" stroke-linejoin="round"/>
</g>
<g style="mix-blend-mode:overlay" opacity="0.3">
<path d="M96.9688 220.903C95.0354 223.561 91.2292 224.165 87.725 223.319C83.3146 222.292 81.7438 187.915 82.5292 181.934C83.0729 182.175 83.7979 183.203 84.5229 185.921C86.1542 191.782 89.9 220.298 96.6667 220.903C96.7875 220.903 96.8882 220.903 96.9688 220.903Z" fill="black"/>
</g>
<path d="M72.1376 228.334C80.7772 224.044 75.823 213.169 73.9501 202.778C72.6612 195.89 73.1647 192.164 75.4605 191.6" stroke="#C14AFF" stroke-width="1.5" stroke-linecap="round" stroke-linejoin="round"/>
<path d="M68.15 219.876C71.2312 211.719 60.4771 199.636 60.4771 193.776C60.4771 189.909 61.927 187.573 64.827 186.767" stroke="#C14AFF" stroke-width="1.5" stroke-linecap="round" stroke-linejoin="round"/>
<g style="mix-blend-mode:overlay" opacity="0.3">
<path d="M90.6854 207.067C102.366 206.423 112.133 209.323 119.987 215.767C131.769 225.494 126.452 245.432 123.25 245.734C120.108 246.096 96.7875 241.565 92.1354 239.45C89.034 238 85.2479 235.523 80.777 232.019" fill="black"/>
</g>
<g style="mix-blend-mode:overlay" opacity="0.3">
<path d="M196.233 164.715L183.304 182.84L179.679 169.367C179.498 168.098 180.465 165.5 181.613 163.688L181.915 163.748L182.821 163.809L192.971 164.473C192.971 164.473 192.971 164.494 192.971 164.534L193.938 164.594L196.233 164.715Z" fill="black"/>
</g>
<path d="M191.279 145.321C191.199 145.362 191.098 145.402 190.977 145.442C190.554 145.623 189.89 145.986 188.983 146.409C185.781 148.04 180.162 151.303 177.927 154.867C177.806 155.109 177.685 155.33 177.565 155.532C177.081 154.726 176.638 153.961 176.235 153.236C173.94 149.067 172.429 145.986 171.462 143.992C171.503 143.952 171.523 143.912 171.523 143.871C171.322 143.509 171.14 143.146 170.979 142.784C170.657 142.139 170.476 141.716 170.435 141.515C170.395 141.475 170.375 141.435 170.375 141.394C170.375 141.354 170.355 141.314 170.315 141.273C170.254 141.032 170.012 140.307 169.71 139.4C167.173 130.278 170.133 119.403 176.115 117.53C177.927 117.812 180.042 120.128 182.458 124.478C185.177 129.492 188.862 138.917 190.494 143.146C190.816 144.032 191.078 144.757 191.279 145.321Z" fill="#0D003D"/>
<path d="M192.065 151.907C191.944 153.659 191.642 155.411 191.098 157.223C188.983 164.655 184.271 171.844 184.573 174.019C185.721 178.067 184.029 186.284 183.606 188.338C183.526 188.701 183.425 189.023 183.304 189.305C183.022 189.989 182.68 190.332 182.277 190.332C182.197 190.573 182.036 190.835 181.794 191.117C181.552 191.48 181.19 191.903 180.767 192.326C180.606 192.527 180.404 192.708 180.163 192.869C180.042 193.171 179.861 193.473 179.679 193.715C179.518 193.876 179.337 194.037 179.136 194.198C178.733 194.521 178.33 194.762 177.927 194.923C177.746 195.165 176.236 197.159 175.329 195.89C174.725 195.004 174.161 190.251 173.638 181.632C172.067 184.451 171.12 185.881 170.798 185.921C170.315 185.921 170.133 182.538 170.496 181.148C170.617 180.726 170.979 180.182 171.402 179.578V179.517C172.248 178.309 173.517 176.859 173.94 175.711C174.483 174.442 176.719 161.634 177.625 156.801C177.746 156.015 177.867 155.411 177.867 155.109C177.907 155.028 177.927 154.948 177.927 154.867C178.592 153.84 179.498 152.813 180.586 151.846C183.244 149.551 186.748 147.557 188.983 146.409C189.89 145.986 190.554 145.623 190.977 145.442C191.883 147.436 192.186 149.611 192.065 151.907Z" fill="url(#paint12_linear_220_2004)"/>
<path d="M191.279 145.321C191.199 145.362 191.098 145.402 190.977 145.442C190.554 145.623 189.89 145.986 188.983 146.409C185.781 148.04 180.163 151.303 177.927 154.867C177.806 155.109 177.685 155.33 177.565 155.532C177.081 154.726 176.638 153.961 176.235 153.236C177.746 150.759 182.096 144.898 190.494 143.146C190.816 144.032 191.078 144.757 191.279 145.321Z" fill="url(#paint13_linear_220_2004)"/>
<g style="mix-blend-mode:overlay" opacity="0.3">
<path d="M192.065 151.907C191.944 153.659 191.642 155.411 191.098 157.223C190.977 153.961 189.346 152.39 186.023 152.511C182.519 152.571 179.498 154.142 177.867 155.109C177.907 155.028 177.927 154.948 177.927 154.867C178.592 153.84 179.498 152.813 180.585 151.846C183.244 149.551 186.748 147.557 188.983 146.409C189.89 145.986 190.554 145.623 190.977 145.442C191.883 147.436 192.185 149.611 192.065 151.907Z" fill="black"/>
</g>
<g style="mix-blend-mode:overlay" opacity="0.3">
<path d="M174.121 176.98C173.356 178.349 172.449 179.215 171.402 179.578V179.517C172.248 178.309 173.517 176.859 173.94 175.711C174.483 174.442 176.719 161.634 177.625 156.8C177.867 156.982 178.108 157.284 178.169 157.767C178.592 159.64 175.208 174.986 174.121 176.98Z" fill="white"/>
</g>
<defs>
<linearGradient id="paint0_linear_220_2004" x1="214.66" y1="8.65884" x2="219.131" y2="155.653" gradientUnits="userSpaceOnUse">
<stop stop-color="#202350"/>
<stop offset="1" stop-color="#151626"/>
</linearGradient>
<linearGradient id="paint1_linear_220_2004" x1="112.798" y1="171.784" x2="110.744" y2="99.2234" gradientUnits="userSpaceOnUse">
<stop stop-color="#FF9328"/>
<stop offset="1" stop-color="#FFA62C"/>
</linearGradient>
<linearGradient id="paint2_linear_220_2004" x1="154.002" y1="83.5755" x2="144.335" y2="113.361" gradientUnits="userSpaceOnUse">
<stop stop-color="#FF8687"/>
<stop offset="1" stop-color="#FFACAA"/>
</linearGradient>
<linearGradient id="paint3_linear_220_2004" x1="157.325" y1="102.667" x2="143.308" y2="128.163" gradientUnits="userSpaceOnUse">
<stop stop-color="#FF8687"/>
<stop offset="1" stop-color="#FFACAA"/>
</linearGradient>
<linearGradient id="paint4_linear_220_2004" x1="221.367" y1="154.686" x2="198.469" y2="258.784" gradientUnits="userSpaceOnUse">
<stop stop-color="#FF8687"/>
<stop offset="1" stop-color="#E95251"/>
</linearGradient>
<radialGradient id="paint5_radial_220_2004" cx="0" cy="0" r="1" gradientUnits="userSpaceOnUse" gradientTransform="translate(135.575 197.28) scale(109.958)">
<stop stop-color="#5D4DA8"/>
<stop offset="1" stop-color="#20268B" stop-opacity="0"/>
</radialGradient>
<linearGradient id="paint6_linear_220_2004" x1="63.4979" y1="79.1047" x2="158.654" y2="-2.09531" gradientUnits="userSpaceOnUse">
<stop stop-color="#F98BC2"/>
<stop offset="1" stop-color="white" stop-opacity="0"/>
</linearGradient>
<linearGradient id="paint7_linear_220_2004" x1="46.6417" y1="36.7526" x2="161.373" y2="36.7526" gradientUnits="userSpaceOnUse">
<stop stop-color="#F98BC2"/>
<stop offset="1" stop-color="white" stop-opacity="0"/>
</linearGradient>
<linearGradient id="paint8_linear_220_2004" x1="163.608" y1="164.413" x2="232" y2="164.413" gradientUnits="userSpaceOnUse">
<stop stop-color="#F98BC2"/>
<stop offset="1" stop-color="white" stop-opacity="0"/>
</linearGradient>
<linearGradient id="paint9_linear_220_2004" x1="-60.3562" y1="181.028" x2="20.2396" y2="61.1005" gradientUnits="userSpaceOnUse">
<stop stop-color="#4BA2D8"/>
<stop offset="1" stop-color="#151626" stop-opacity="0"/>
</linearGradient>
<linearGradient id="paint10_linear_220_2004" x1="224.388" y1="119.161" x2="131.104" y2="240.598" gradientUnits="userSpaceOnUse">
<stop stop-color="#17247E"/>
<stop offset="1" stop-color="#141B54"/>
</linearGradient>
<linearGradient id="paint11_linear_220_2004" x1="103.554" y1="161.453" x2="97.5125" y2="233.107" gradientUnits="userSpaceOnUse">
<stop stop-color="#17247E"/>
<stop offset="1" stop-color="#141B54"/>
</linearGradient>
<linearGradient id="paint12_linear_220_2004" x1="210.915" y1="108.769" x2="180.102" y2="202.415" gradientUnits="userSpaceOnUse">
<stop stop-color="#FF8687"/>
<stop offset="1" stop-color="#FFACAA"/>
</linearGradient>
<linearGradient id="paint13_linear_220_2004" x1="204.813" y1="132.996" x2="171.463" y2="167.736" gradientUnits="userSpaceOnUse">
<stop stop-color="#FF9328"/>
<stop offset="1" stop-color="#FFA62C"/>
</linearGradient>
</defs>
</svg>
